<?xml version="1.0" standalone="no"?>
<!DOCTYPE svg PUBLIC "-//W3C//DTD SVG 20010904//EN"
 "http://www.w3.org/TR/2001/REC-SVG-20010904/DTD/svg10.dtd">
<svg version="1.0" xmlns="http://www.w3.org/2000/svg"
 width="500.000000pt" height="500.000000pt" viewBox="0 0 500.000000 500.000000"
 preserveAspectRatio="xMidYMid meet">
<metadata>
Created by potrace 1.14, written by Peter Selinger 2001-2017
</metadata>
<g transform="translate(0.000000,500.000000) scale(0.100000,-0.100000)"
fill="#000000" stroke="none">
<path d="M1 4875 c1 -106 3 -124 15 -114 8 6 11 15 8 20 -3 5 0 8 8 7 7 -2 12
3 10 10 -1 6 4 11 10 10 7 -2 12 3 10 10 -1 6 4 11 10 10 7 -2 12 3 10 10 -1
6 4 11 10 10 7 -2 12 3 10 10 -1 6 4 11 10 10 7 -2 12 3 10 10 -1 6 4 11 10
10 7 -2 12 3 10 10 -1 6 4 11 10 10 7 -2 12 3 10 10 -1 6 4 11 10 10 7 -2 12
3 10 10 -1 6 4 11 10 10 7 -2 12 3 11 10 -2 6 3 11 10 10 6 -2 11 3 9 10 -1 8
2 11 7 8 5 -4 12 -2 16 4 4 7 -37 10 -120 10 l-126 0 2 -125z"/>
<path d="M270 3773 c-55 -28 -65 -60 -65 -203 0 -206 15 -219 273 -219 l162
-1 0 -810 0 -810 -172 0 c-192 0 -210 -5 -242 -60 -18 -30 -21 -52 -21 -155 0
-132 15 -177 66 -202 35 -18 2053 -18 2089 0 14 7 33 28 42 47 16 32 18 79 18
541 0 279 -3 520 -6 537 -15 73 -69 93 -247 93 -142 0 -215 -17 -246 -58 -20
-25 -21 -38 -21 -374 l0 -349 -370 0 -370 0 0 799 0 799 253 4 c181 2 258 7
274 16 42 23 57 69 61 182 4 124 -10 183 -51 214 -28 21 -36 21 -710 24 -635
2 -684 1 -717 -15z"/>
<path d="M2728 3781 c-46 -9 -67 -27 -85 -68 -20 -48 -19 -959 1 -1007 20 -47
80 -69 194 -69 105 -1 166 15 204 53 l28 28 0 306 0 306 190 0 190 0 0 -800 0
-800 -244 0 c-138 0 -256 -4 -271 -10 -44 -17 -66 -82 -66 -199 0 -114 12
-170 42 -197 20 -18 49 -19 789 -22 481 -1 777 1 793 7 42 16 60 64 65 176 5
118 -8 176 -48 217 l-28 28 -250 0 -249 0 -6 242 c-4 133 -7 493 -7 800 l0
558 190 0 190 0 0 -302 c0 -281 1 -305 19 -334 26 -42 75 -58 186 -58 111 -1
177 17 210 56 l25 30 0 489 c0 528 0 531 -53 561 -17 10 -225 13 -997 14 -536
1 -992 -1 -1012 -5z"/>
<path d="M4240 755 l-755 -755 758 0 757 0 0 755 c0 415 -1 755 -3 755 -1 0
-342 -340 -757 -755z"/>
</g>
</svg>
